%TF.GenerationSoftware,KiCad,Pcbnew,(6.0.6-0)*%
%TF.CreationDate,2022-10-23T05:24:34+09:00*%
%TF.ProjectId,KU88,4b553838-2e6b-4696-9361-645f70636258,rev?*%
%TF.SameCoordinates,Original*%
%TF.FileFunction,Soldermask,Top*%
%TF.FilePolarity,Negative*%
%FSLAX46Y46*%
G04 Gerber Fmt 4.6, Leading zero omitted, Abs format (unit mm)*
G04 Created by KiCad (PCBNEW (6.0.6-0)) date 2022-10-23 05:24:34*
%MOMM*%
%LPD*%
G01*
G04 APERTURE LIST*
G04 Aperture macros list*
%AMRoundRect*
0 Rectangle with rounded corners*
0 $1 Rounding radius*
0 $2 $3 $4 $5 $6 $7 $8 $9 X,Y pos of 4 corners*
0 Add a 4 corners polygon primitive as box body*
4,1,4,$2,$3,$4,$5,$6,$7,$8,$9,$2,$3,0*
0 Add four circle primitives for the rounded corners*
1,1,$1+$1,$2,$3*
1,1,$1+$1,$4,$5*
1,1,$1+$1,$6,$7*
1,1,$1+$1,$8,$9*
0 Add four rect primitives between the rounded corners*
20,1,$1+$1,$2,$3,$4,$5,0*
20,1,$1+$1,$4,$5,$6,$7,0*
20,1,$1+$1,$6,$7,$8,$9,0*
20,1,$1+$1,$8,$9,$2,$3,0*%
G04 Aperture macros list end*
%ADD10RoundRect,0.075000X-0.075000X0.662500X-0.075000X-0.662500X0.075000X-0.662500X0.075000X0.662500X0*%
%ADD11RoundRect,0.075000X-0.662500X0.075000X-0.662500X-0.075000X0.662500X-0.075000X0.662500X0.075000X0*%
%ADD12R,1.900000X1.900000*%
%ADD13C,1.900000*%
%ADD14RoundRect,0.237500X-0.250000X-0.237500X0.250000X-0.237500X0.250000X0.237500X-0.250000X0.237500X0*%
%ADD15C,1.720000*%
%ADD16C,2.400000*%
%ADD17O,1.700000X1.700000*%
%ADD18R,1.700000X1.700000*%
%ADD19O,1.500000X3.000000*%
%ADD20O,5.000000X2.500000*%
%ADD21C,1.500000*%
%ADD22RoundRect,0.237500X0.287500X0.237500X-0.287500X0.237500X-0.287500X-0.237500X0.287500X-0.237500X0*%
%ADD23RoundRect,0.237500X-0.300000X-0.237500X0.300000X-0.237500X0.300000X0.237500X-0.300000X0.237500X0*%
G04 APERTURE END LIST*
D10*
%TO.C,U1*%
X122130000Y-129822500D03*
X121630000Y-129822500D03*
X121130000Y-129822500D03*
X120630000Y-129822500D03*
X120130000Y-129822500D03*
X119630000Y-129822500D03*
X119130000Y-129822500D03*
X118630000Y-129822500D03*
X118130000Y-129822500D03*
X117630000Y-129822500D03*
X117130000Y-129822500D03*
X116630000Y-129822500D03*
D11*
X115217500Y-131235000D03*
X115217500Y-131735000D03*
X115217500Y-132235000D03*
X115217500Y-132735000D03*
X115217500Y-133235000D03*
X115217500Y-133735000D03*
X115217500Y-134235000D03*
X115217500Y-134735000D03*
X115217500Y-135235000D03*
X115217500Y-135735000D03*
X115217500Y-136235000D03*
X115217500Y-136735000D03*
D10*
X116630000Y-138147500D03*
X117130000Y-138147500D03*
X117630000Y-138147500D03*
X118130000Y-138147500D03*
X118630000Y-138147500D03*
X119130000Y-138147500D03*
X119630000Y-138147500D03*
X120130000Y-138147500D03*
X120630000Y-138147500D03*
X121130000Y-138147500D03*
X121630000Y-138147500D03*
X122130000Y-138147500D03*
D11*
X123542500Y-136735000D03*
X123542500Y-136235000D03*
X123542500Y-135735000D03*
X123542500Y-135235000D03*
X123542500Y-134735000D03*
X123542500Y-134235000D03*
X123542500Y-133735000D03*
X123542500Y-133235000D03*
X123542500Y-132735000D03*
X123542500Y-132235000D03*
X123542500Y-131735000D03*
X123542500Y-131235000D03*
%TD*%
D12*
%TO.C,SW1*%
X103792000Y-131572000D03*
D13*
X106292000Y-131572000D03*
X108792000Y-131572000D03*
%TD*%
D14*
%TO.C,R1*%
X125833500Y-131572000D03*
X127658500Y-131572000D03*
%TD*%
D15*
%TO.C,J4*%
X119690000Y-140675000D03*
X122190000Y-140675000D03*
X124190000Y-140675000D03*
X126690000Y-140675000D03*
D16*
X116790000Y-147425000D03*
X129590000Y-147425000D03*
%TD*%
D17*
%TO.C,J3*%
X104125000Y-135636000D03*
X106665000Y-135636000D03*
D18*
X109205000Y-135636000D03*
%TD*%
D19*
%TO.C,J2*%
X113530000Y-144995000D03*
D20*
X106680000Y-145645000D03*
D19*
X99830000Y-144995000D03*
D21*
X108180000Y-141995000D03*
X109930000Y-141995000D03*
X103430000Y-141995000D03*
X109930000Y-139195000D03*
X103430000Y-139195000D03*
%TD*%
D19*
%TO.C,J1*%
X107958000Y-120480000D03*
D20*
X114808000Y-119830000D03*
D19*
X121658000Y-120480000D03*
D21*
X113308000Y-123480000D03*
X111558000Y-123480000D03*
X118058000Y-123480000D03*
X111558000Y-126280000D03*
X118058000Y-126280000D03*
%TD*%
D22*
%TO.C,D1*%
X127621000Y-137160000D03*
X125871000Y-137160000D03*
%TD*%
D23*
%TO.C,C2*%
X125883500Y-135128000D03*
X127608500Y-135128000D03*
%TD*%
%TO.C,C1*%
X127608500Y-133604000D03*
X125883500Y-133604000D03*
%TD*%
M02*
