M48
; DRILL file {KiCad (6.0.6-0)} date Sunday, 23 October 2022 at 05:24:36
; FORMAT={-:-/ absolute / inch / decimal}
; #@! TF.CreationDate,2022-10-23T05:24:36+09:00
; #@! TF.GenerationSoftware,Kicad,Pcbnew,(6.0.6-0)
; #@! TF.FileFunction,MixedPlating,1,2
FMAT,2
INCH
; #@! TA.AperFunction,Plated,PTH,ViaDrill
T1C0.0157
; #@! TA.AperFunction,Plated,PTH,ComponentDrill
T2C0.0236
; #@! TA.AperFunction,Plated,PTH,ComponentDrill
T3C0.0276
; #@! TA.AperFunction,Plated,PTH,ComponentDrill
T4C0.0354
; #@! TA.AperFunction,Plated,PTH,ComponentDrill
T5C0.0362
; #@! TA.AperFunction,Plated,PTH,ComponentDrill
T6C0.0394
; #@! TA.AperFunction,Plated,PTH,ComponentDrill
T7C0.0433
; #@! TA.AperFunction,Plated,PTH,ComponentDrill
T8C0.0630
%
G90
G05
T1
X4.7Y-5.28
X4.7315Y-5.2885
X4.9Y-5.44
X4.9278Y-5.4278
T2
X4.072Y-5.4801
X4.072Y-5.5904
X4.2591Y-5.5904
X4.328Y-5.4801
X4.328Y-5.5904
X4.392Y-4.8614
X4.392Y-4.9717
X4.4609Y-4.8614
X4.648Y-4.8614
X4.648Y-4.9717
T4
X4.0863Y-5.18
X4.1847Y-5.18
X4.2831Y-5.18
T5
X4.7122Y-5.5384
X4.8106Y-5.5384
X4.8894Y-5.5384
X4.9878Y-5.5384
T6
X4.0994Y-5.34
X4.1994Y-5.34
X4.2994Y-5.34
T8
X4.598Y-5.8041
X5.102Y-5.8041
T3
G00X3.9303Y-5.6829
M15
G01X3.9303Y-5.7341
M16
G05
G00X4.2503Y-4.7689
M15
G01X4.2503Y-4.7177
M16
G05
G00X4.4697Y-5.6829
M15
G01X4.4697Y-5.7341
M16
G05
G00X4.7897Y-4.7689
M15
G01X4.7897Y-4.7177
M16
G05
T7
G00X4.1587Y-5.7341
M15
G01X4.2413Y-5.7341
M16
G05
G00X4.5613Y-4.7177
M15
G01X4.4787Y-4.7177
M16
G05
T0
M30
