%TF.GenerationSoftware,KiCad,Pcbnew,(6.0.6-0)*%
%TF.CreationDate,2022-10-23T05:24:33+09:00*%
%TF.ProjectId,KU88,4b553838-2e6b-4696-9361-645f70636258,rev?*%
%TF.SameCoordinates,Original*%
%TF.FileFunction,Legend,Top*%
%TF.FilePolarity,Positive*%
%FSLAX46Y46*%
G04 Gerber Fmt 4.6, Leading zero omitted, Abs format (unit mm)*
G04 Created by KiCad (PCBNEW (6.0.6-0)) date 2022-10-23 05:24:33*
%MOMM*%
%LPD*%
G01*
G04 APERTURE LIST*
%ADD10C,0.100000*%
%ADD11C,0.500000*%
%ADD12C,0.150000*%
%ADD13C,0.120000*%
G04 APERTURE END LIST*
D10*
X98251238Y-128297809D02*
X98275047Y-128274000D01*
X98322666Y-128250190D01*
X98441714Y-128250190D01*
X98489333Y-128274000D01*
X98513142Y-128297809D01*
X98536952Y-128345428D01*
X98536952Y-128393047D01*
X98513142Y-128464476D01*
X98227428Y-128750190D01*
X98536952Y-128750190D01*
X98846476Y-128250190D02*
X98894095Y-128250190D01*
X98941714Y-128274000D01*
X98965523Y-128297809D01*
X98989333Y-128345428D01*
X99013142Y-128440666D01*
X99013142Y-128559714D01*
X98989333Y-128654952D01*
X98965523Y-128702571D01*
X98941714Y-128726380D01*
X98894095Y-128750190D01*
X98846476Y-128750190D01*
X98798857Y-128726380D01*
X98775047Y-128702571D01*
X98751238Y-128654952D01*
X98727428Y-128559714D01*
X98727428Y-128440666D01*
X98751238Y-128345428D01*
X98775047Y-128297809D01*
X98798857Y-128274000D01*
X98846476Y-128250190D01*
X99203619Y-128297809D02*
X99227428Y-128274000D01*
X99275047Y-128250190D01*
X99394095Y-128250190D01*
X99441714Y-128274000D01*
X99465523Y-128297809D01*
X99489333Y-128345428D01*
X99489333Y-128393047D01*
X99465523Y-128464476D01*
X99179809Y-128750190D01*
X99489333Y-128750190D01*
X99679809Y-128297809D02*
X99703619Y-128274000D01*
X99751238Y-128250190D01*
X99870285Y-128250190D01*
X99917904Y-128274000D01*
X99941714Y-128297809D01*
X99965523Y-128345428D01*
X99965523Y-128393047D01*
X99941714Y-128464476D01*
X99656000Y-128750190D01*
X99965523Y-128750190D01*
X100179809Y-128702571D02*
X100203619Y-128726380D01*
X100179809Y-128750190D01*
X100156000Y-128726380D01*
X100179809Y-128702571D01*
X100179809Y-128750190D01*
X100679809Y-128750190D02*
X100394095Y-128750190D01*
X100536952Y-128750190D02*
X100536952Y-128250190D01*
X100489333Y-128321619D01*
X100441714Y-128369238D01*
X100394095Y-128393047D01*
X100989333Y-128250190D02*
X101036952Y-128250190D01*
X101084571Y-128274000D01*
X101108380Y-128297809D01*
X101132190Y-128345428D01*
X101156000Y-128440666D01*
X101156000Y-128559714D01*
X101132190Y-128654952D01*
X101108380Y-128702571D01*
X101084571Y-128726380D01*
X101036952Y-128750190D01*
X100989333Y-128750190D01*
X100941714Y-128726380D01*
X100917904Y-128702571D01*
X100894095Y-128654952D01*
X100870285Y-128559714D01*
X100870285Y-128440666D01*
X100894095Y-128345428D01*
X100917904Y-128297809D01*
X100941714Y-128274000D01*
X100989333Y-128250190D01*
X101370285Y-128702571D02*
X101394095Y-128726380D01*
X101370285Y-128750190D01*
X101346476Y-128726380D01*
X101370285Y-128702571D01*
X101370285Y-128750190D01*
X101584571Y-128297809D02*
X101608380Y-128274000D01*
X101656000Y-128250190D01*
X101775047Y-128250190D01*
X101822666Y-128274000D01*
X101846476Y-128297809D01*
X101870285Y-128345428D01*
X101870285Y-128393047D01*
X101846476Y-128464476D01*
X101560761Y-128750190D01*
X101870285Y-128750190D01*
X102036952Y-128250190D02*
X102346476Y-128250190D01*
X102179809Y-128440666D01*
X102251238Y-128440666D01*
X102298857Y-128464476D01*
X102322666Y-128488285D01*
X102346476Y-128535904D01*
X102346476Y-128654952D01*
X102322666Y-128702571D01*
X102298857Y-128726380D01*
X102251238Y-128750190D01*
X102108380Y-128750190D01*
X102060761Y-128726380D01*
X102036952Y-128702571D01*
X102941714Y-128750190D02*
X102941714Y-128250190D01*
X103060761Y-128250190D01*
X103132190Y-128274000D01*
X103179809Y-128321619D01*
X103203619Y-128369238D01*
X103227428Y-128464476D01*
X103227428Y-128535904D01*
X103203619Y-128631142D01*
X103179809Y-128678761D01*
X103132190Y-128726380D01*
X103060761Y-128750190D01*
X102941714Y-128750190D01*
X103632190Y-128726380D02*
X103584571Y-128750190D01*
X103489333Y-128750190D01*
X103441714Y-128726380D01*
X103417904Y-128678761D01*
X103417904Y-128488285D01*
X103441714Y-128440666D01*
X103489333Y-128416857D01*
X103584571Y-128416857D01*
X103632190Y-128440666D01*
X103656000Y-128488285D01*
X103656000Y-128535904D01*
X103417904Y-128583523D01*
X103846476Y-128726380D02*
X103894095Y-128750190D01*
X103989333Y-128750190D01*
X104036952Y-128726380D01*
X104060761Y-128678761D01*
X104060761Y-128654952D01*
X104036952Y-128607333D01*
X103989333Y-128583523D01*
X103917904Y-128583523D01*
X103870285Y-128559714D01*
X103846476Y-128512095D01*
X103846476Y-128488285D01*
X103870285Y-128440666D01*
X103917904Y-128416857D01*
X103989333Y-128416857D01*
X104036952Y-128440666D01*
X104275047Y-128750190D02*
X104275047Y-128416857D01*
X104275047Y-128250190D02*
X104251238Y-128274000D01*
X104275047Y-128297809D01*
X104298857Y-128274000D01*
X104275047Y-128250190D01*
X104275047Y-128297809D01*
X104727428Y-128416857D02*
X104727428Y-128821619D01*
X104703619Y-128869238D01*
X104679809Y-128893047D01*
X104632190Y-128916857D01*
X104560761Y-128916857D01*
X104513142Y-128893047D01*
X104727428Y-128726380D02*
X104679809Y-128750190D01*
X104584571Y-128750190D01*
X104536952Y-128726380D01*
X104513142Y-128702571D01*
X104489333Y-128654952D01*
X104489333Y-128512095D01*
X104513142Y-128464476D01*
X104536952Y-128440666D01*
X104584571Y-128416857D01*
X104679809Y-128416857D01*
X104727428Y-128440666D01*
X104965523Y-128416857D02*
X104965523Y-128750190D01*
X104965523Y-128464476D02*
X104989333Y-128440666D01*
X105036952Y-128416857D01*
X105108380Y-128416857D01*
X105156000Y-128440666D01*
X105179809Y-128488285D01*
X105179809Y-128750190D01*
X105608380Y-128726380D02*
X105560761Y-128750190D01*
X105465523Y-128750190D01*
X105417904Y-128726380D01*
X105394095Y-128678761D01*
X105394095Y-128488285D01*
X105417904Y-128440666D01*
X105465523Y-128416857D01*
X105560761Y-128416857D01*
X105608380Y-128440666D01*
X105632190Y-128488285D01*
X105632190Y-128535904D01*
X105394095Y-128583523D01*
X106060761Y-128750190D02*
X106060761Y-128250190D01*
X106060761Y-128726380D02*
X106013142Y-128750190D01*
X105917904Y-128750190D01*
X105870285Y-128726380D01*
X105846476Y-128702571D01*
X105822666Y-128654952D01*
X105822666Y-128512095D01*
X105846476Y-128464476D01*
X105870285Y-128440666D01*
X105917904Y-128416857D01*
X106013142Y-128416857D01*
X106060761Y-128440666D01*
X106679809Y-128750190D02*
X106679809Y-128250190D01*
X106679809Y-128440666D02*
X106727428Y-128416857D01*
X106822666Y-128416857D01*
X106870285Y-128440666D01*
X106894095Y-128464476D01*
X106917904Y-128512095D01*
X106917904Y-128654952D01*
X106894095Y-128702571D01*
X106870285Y-128726380D01*
X106822666Y-128750190D01*
X106727428Y-128750190D01*
X106679809Y-128726380D01*
X107084571Y-128416857D02*
X107203619Y-128750190D01*
X107322666Y-128416857D02*
X107203619Y-128750190D01*
X107156000Y-128869238D01*
X107132190Y-128893047D01*
X107084571Y-128916857D01*
X107894095Y-128750190D02*
X107894095Y-128250190D01*
X108060761Y-128607333D01*
X108227428Y-128250190D01*
X108227428Y-128750190D01*
X108656000Y-128726380D02*
X108608380Y-128750190D01*
X108513142Y-128750190D01*
X108465523Y-128726380D01*
X108441714Y-128678761D01*
X108441714Y-128488285D01*
X108465523Y-128440666D01*
X108513142Y-128416857D01*
X108608380Y-128416857D01*
X108656000Y-128440666D01*
X108679809Y-128488285D01*
X108679809Y-128535904D01*
X108441714Y-128583523D01*
X108965523Y-128750190D02*
X108917904Y-128726380D01*
X108894095Y-128678761D01*
X108894095Y-128250190D01*
X109227428Y-128750190D02*
X109179809Y-128726380D01*
X109156000Y-128678761D01*
X109156000Y-128250190D01*
X109489333Y-128750190D02*
X109441714Y-128726380D01*
X109417904Y-128702571D01*
X109394095Y-128654952D01*
X109394095Y-128512095D01*
X109417904Y-128464476D01*
X109441714Y-128440666D01*
X109489333Y-128416857D01*
X109560761Y-128416857D01*
X109608380Y-128440666D01*
X109632190Y-128464476D01*
X109656000Y-128512095D01*
X109656000Y-128654952D01*
X109632190Y-128702571D01*
X109608380Y-128726380D01*
X109560761Y-128750190D01*
X109489333Y-128750190D01*
X109822666Y-128416857D02*
X109917904Y-128750190D01*
X110013142Y-128512095D01*
X110108380Y-128750190D01*
X110203619Y-128416857D01*
X110775047Y-128750190D02*
X110775047Y-128250190D01*
X110965523Y-128250190D01*
X111013142Y-128274000D01*
X111036952Y-128297809D01*
X111060761Y-128345428D01*
X111060761Y-128416857D01*
X111036952Y-128464476D01*
X111013142Y-128488285D01*
X110965523Y-128512095D01*
X110775047Y-128512095D01*
X111560761Y-128702571D02*
X111536952Y-128726380D01*
X111465523Y-128750190D01*
X111417904Y-128750190D01*
X111346476Y-128726380D01*
X111298857Y-128678761D01*
X111275047Y-128631142D01*
X111251238Y-128535904D01*
X111251238Y-128464476D01*
X111275047Y-128369238D01*
X111298857Y-128321619D01*
X111346476Y-128274000D01*
X111417904Y-128250190D01*
X111465523Y-128250190D01*
X111536952Y-128274000D01*
X111560761Y-128297809D01*
X111941714Y-128488285D02*
X112013142Y-128512095D01*
X112036952Y-128535904D01*
X112060761Y-128583523D01*
X112060761Y-128654952D01*
X112036952Y-128702571D01*
X112013142Y-128726380D01*
X111965523Y-128750190D01*
X111775047Y-128750190D01*
X111775047Y-128250190D01*
X111941714Y-128250190D01*
X111989333Y-128274000D01*
X112013142Y-128297809D01*
X112036952Y-128345428D01*
X112036952Y-128393047D01*
X112013142Y-128440666D01*
X111989333Y-128464476D01*
X111941714Y-128488285D01*
X111775047Y-128488285D01*
D11*
X124031809Y-129936761D02*
X124031809Y-127936761D01*
X125174666Y-129936761D02*
X124317523Y-128793904D01*
X125174666Y-127936761D02*
X124031809Y-129079619D01*
X126031809Y-127936761D02*
X126031809Y-129555809D01*
X126127047Y-129746285D01*
X126222285Y-129841523D01*
X126412761Y-129936761D01*
X126793714Y-129936761D01*
X126984190Y-129841523D01*
X127079428Y-129746285D01*
X127174666Y-129555809D01*
X127174666Y-127936761D01*
X128412761Y-128793904D02*
X128222285Y-128698666D01*
X128127047Y-128603428D01*
X128031809Y-128412952D01*
X128031809Y-128317714D01*
X128127047Y-128127238D01*
X128222285Y-128032000D01*
X128412761Y-127936761D01*
X128793714Y-127936761D01*
X128984190Y-128032000D01*
X129079428Y-128127238D01*
X129174666Y-128317714D01*
X129174666Y-128412952D01*
X129079428Y-128603428D01*
X128984190Y-128698666D01*
X128793714Y-128793904D01*
X128412761Y-128793904D01*
X128222285Y-128889142D01*
X128127047Y-128984380D01*
X128031809Y-129174857D01*
X128031809Y-129555809D01*
X128127047Y-129746285D01*
X128222285Y-129841523D01*
X128412761Y-129936761D01*
X128793714Y-129936761D01*
X128984190Y-129841523D01*
X129079428Y-129746285D01*
X129174666Y-129555809D01*
X129174666Y-129174857D01*
X129079428Y-128984380D01*
X128984190Y-128889142D01*
X128793714Y-128793904D01*
X130317523Y-128793904D02*
X130127047Y-128698666D01*
X130031809Y-128603428D01*
X129936571Y-128412952D01*
X129936571Y-128317714D01*
X130031809Y-128127238D01*
X130127047Y-128032000D01*
X130317523Y-127936761D01*
X130698476Y-127936761D01*
X130888952Y-128032000D01*
X130984190Y-128127238D01*
X131079428Y-128317714D01*
X131079428Y-128412952D01*
X130984190Y-128603428D01*
X130888952Y-128698666D01*
X130698476Y-128793904D01*
X130317523Y-128793904D01*
X130127047Y-128889142D01*
X130031809Y-128984380D01*
X129936571Y-129174857D01*
X129936571Y-129555809D01*
X130031809Y-129746285D01*
X130127047Y-129841523D01*
X130317523Y-129936761D01*
X130698476Y-129936761D01*
X130888952Y-129841523D01*
X130984190Y-129746285D01*
X131079428Y-129555809D01*
X131079428Y-129174857D01*
X130984190Y-128984380D01*
X130888952Y-128889142D01*
X130698476Y-128793904D01*
D12*
%TO.C,U1*%
X121031095Y-131151380D02*
X121031095Y-131960904D01*
X121078714Y-132056142D01*
X121126333Y-132103761D01*
X121221571Y-132151380D01*
X121412047Y-132151380D01*
X121507285Y-132103761D01*
X121554904Y-132056142D01*
X121602523Y-131960904D01*
X121602523Y-131151380D01*
X122602523Y-132151380D02*
X122031095Y-132151380D01*
X122316809Y-132151380D02*
X122316809Y-131151380D01*
X122221571Y-131294238D01*
X122126333Y-131389476D01*
X122031095Y-131437095D01*
%TO.C,SW1*%
X104948666Y-130452761D02*
X105091523Y-130500380D01*
X105329619Y-130500380D01*
X105424857Y-130452761D01*
X105472476Y-130405142D01*
X105520095Y-130309904D01*
X105520095Y-130214666D01*
X105472476Y-130119428D01*
X105424857Y-130071809D01*
X105329619Y-130024190D01*
X105139142Y-129976571D01*
X105043904Y-129928952D01*
X104996285Y-129881333D01*
X104948666Y-129786095D01*
X104948666Y-129690857D01*
X104996285Y-129595619D01*
X105043904Y-129548000D01*
X105139142Y-129500380D01*
X105377238Y-129500380D01*
X105520095Y-129548000D01*
X105853428Y-129500380D02*
X106091523Y-130500380D01*
X106282000Y-129786095D01*
X106472476Y-130500380D01*
X106710571Y-129500380D01*
X107615333Y-130500380D02*
X107043904Y-130500380D01*
X107329619Y-130500380D02*
X107329619Y-129500380D01*
X107234380Y-129643238D01*
X107139142Y-129738476D01*
X107043904Y-129786095D01*
%TO.C,R1*%
X129119333Y-132024380D02*
X128786000Y-131548190D01*
X128547904Y-132024380D02*
X128547904Y-131024380D01*
X128928857Y-131024380D01*
X129024095Y-131072000D01*
X129071714Y-131119619D01*
X129119333Y-131214857D01*
X129119333Y-131357714D01*
X129071714Y-131452952D01*
X129024095Y-131500571D01*
X128928857Y-131548190D01*
X128547904Y-131548190D01*
X130071714Y-132024380D02*
X129500285Y-132024380D01*
X129786000Y-132024380D02*
X129786000Y-131024380D01*
X129690761Y-131167238D01*
X129595523Y-131262476D01*
X129500285Y-131310095D01*
%TO.C,J4*%
X122781666Y-142200380D02*
X122781666Y-142914666D01*
X122734047Y-143057523D01*
X122638809Y-143152761D01*
X122495952Y-143200380D01*
X122400714Y-143200380D01*
X123686428Y-142533714D02*
X123686428Y-143200380D01*
X123448333Y-142152761D02*
X123210238Y-142867047D01*
X123829285Y-142867047D01*
%TO.C,J3*%
X111201666Y-135088380D02*
X111201666Y-135802666D01*
X111154047Y-135945523D01*
X111058809Y-136040761D01*
X110915952Y-136088380D01*
X110820714Y-136088380D01*
X111582619Y-135088380D02*
X112201666Y-135088380D01*
X111868333Y-135469333D01*
X112011190Y-135469333D01*
X112106428Y-135516952D01*
X112154047Y-135564571D01*
X112201666Y-135659809D01*
X112201666Y-135897904D01*
X112154047Y-135993142D01*
X112106428Y-136040761D01*
X112011190Y-136088380D01*
X111725476Y-136088380D01*
X111630238Y-136040761D01*
X111582619Y-135993142D01*
%TO.C,J2*%
X106346666Y-139914380D02*
X106346666Y-140628666D01*
X106299047Y-140771523D01*
X106203809Y-140866761D01*
X106060952Y-140914380D01*
X105965714Y-140914380D01*
X106775238Y-140009619D02*
X106822857Y-139962000D01*
X106918095Y-139914380D01*
X107156190Y-139914380D01*
X107251428Y-139962000D01*
X107299047Y-140009619D01*
X107346666Y-140104857D01*
X107346666Y-140200095D01*
X107299047Y-140342952D01*
X106727619Y-140914380D01*
X107346666Y-140914380D01*
%TO.C,J1*%
X114474666Y-124465380D02*
X114474666Y-125179666D01*
X114427047Y-125322523D01*
X114331809Y-125417761D01*
X114188952Y-125465380D01*
X114093714Y-125465380D01*
X115474666Y-125465380D02*
X114903238Y-125465380D01*
X115188952Y-125465380D02*
X115188952Y-124465380D01*
X115093714Y-124608238D01*
X114998476Y-124703476D01*
X114903238Y-124751095D01*
%TO.C,D1*%
X128547904Y-137612380D02*
X128547904Y-136612380D01*
X128786000Y-136612380D01*
X128928857Y-136660000D01*
X129024095Y-136755238D01*
X129071714Y-136850476D01*
X129119333Y-137040952D01*
X129119333Y-137183809D01*
X129071714Y-137374285D01*
X129024095Y-137469523D01*
X128928857Y-137564761D01*
X128786000Y-137612380D01*
X128547904Y-137612380D01*
X130071714Y-137612380D02*
X129500285Y-137612380D01*
X129786000Y-137612380D02*
X129786000Y-136612380D01*
X129690761Y-136755238D01*
X129595523Y-136850476D01*
X129500285Y-136898095D01*
%TO.C,C2*%
X129119333Y-135485142D02*
X129071714Y-135532761D01*
X128928857Y-135580380D01*
X128833619Y-135580380D01*
X128690761Y-135532761D01*
X128595523Y-135437523D01*
X128547904Y-135342285D01*
X128500285Y-135151809D01*
X128500285Y-135008952D01*
X128547904Y-134818476D01*
X128595523Y-134723238D01*
X128690761Y-134628000D01*
X128833619Y-134580380D01*
X128928857Y-134580380D01*
X129071714Y-134628000D01*
X129119333Y-134675619D01*
X129500285Y-134675619D02*
X129547904Y-134628000D01*
X129643142Y-134580380D01*
X129881238Y-134580380D01*
X129976476Y-134628000D01*
X130024095Y-134675619D01*
X130071714Y-134770857D01*
X130071714Y-134866095D01*
X130024095Y-135008952D01*
X129452666Y-135580380D01*
X130071714Y-135580380D01*
%TO.C,C1*%
X129119333Y-133961142D02*
X129071714Y-134008761D01*
X128928857Y-134056380D01*
X128833619Y-134056380D01*
X128690761Y-134008761D01*
X128595523Y-133913523D01*
X128547904Y-133818285D01*
X128500285Y-133627809D01*
X128500285Y-133484952D01*
X128547904Y-133294476D01*
X128595523Y-133199238D01*
X128690761Y-133104000D01*
X128833619Y-133056380D01*
X128928857Y-133056380D01*
X129071714Y-133104000D01*
X129119333Y-133151619D01*
X130071714Y-134056380D02*
X129500285Y-134056380D01*
X129786000Y-134056380D02*
X129786000Y-133056380D01*
X129690761Y-133199238D01*
X129595523Y-133294476D01*
X129500285Y-133342095D01*
D13*
%TO.C,U1*%
X122990000Y-137145000D02*
X122990000Y-137595000D01*
X115770000Y-130375000D02*
X116220000Y-130375000D01*
X122990000Y-130375000D02*
X122540000Y-130375000D01*
X115770000Y-137145000D02*
X115770000Y-137595000D01*
X115770000Y-137595000D02*
X116220000Y-137595000D01*
X122990000Y-130825000D02*
X122990000Y-130375000D01*
X115770000Y-130825000D02*
X115770000Y-130375000D01*
X122540000Y-130375000D02*
X122540000Y-129085000D01*
X122990000Y-137595000D02*
X122540000Y-137595000D01*
D10*
%TO.C,SW1*%
X112092000Y-133672000D02*
X111592000Y-133672000D01*
X112092000Y-133672000D02*
X112092000Y-133172000D01*
X100192000Y-133672000D02*
X100692000Y-133672000D01*
X100192000Y-133672000D02*
X100192000Y-133172000D01*
X100192000Y-129472000D02*
X100692000Y-129472000D01*
X100192000Y-129472000D02*
X100192000Y-129972000D01*
X112092000Y-129472000D02*
X112092000Y-129972000D01*
X112092000Y-129472000D02*
X111592000Y-129472000D01*
D13*
%TO.C,R1*%
X126491276Y-131049500D02*
X127000724Y-131049500D01*
X126491276Y-132094500D02*
X127000724Y-132094500D01*
D10*
%TO.C,J4*%
X129865000Y-140450000D02*
X129865000Y-141175000D01*
X128915000Y-140450000D02*
X129865000Y-140450000D01*
X117490000Y-150460000D02*
X116515000Y-150460000D01*
X116515000Y-140450000D02*
X116515000Y-141250000D01*
X129865000Y-150460000D02*
X129165000Y-150460000D01*
X129865000Y-149810000D02*
X129865000Y-150460000D01*
X117540000Y-140450000D02*
X116515000Y-140450000D01*
X116515000Y-150460000D02*
X116515000Y-149785000D01*
D13*
%TO.C,J3*%
X107935000Y-134306000D02*
X107935000Y-136966000D01*
X110535000Y-134306000D02*
X110535000Y-135636000D01*
X107935000Y-136966000D02*
X102795000Y-136966000D01*
X109205000Y-134306000D02*
X110535000Y-134306000D01*
X107935000Y-134306000D02*
X102795000Y-134306000D01*
X102795000Y-134306000D02*
X102795000Y-136966000D01*
%TO.C,J2*%
X113530000Y-150495000D02*
X113530000Y-137695000D01*
X99830000Y-137695000D02*
X113530000Y-137695000D01*
X99830000Y-150495000D02*
X99830000Y-137695000D01*
X99830000Y-150495000D02*
X113530000Y-150495000D01*
%TO.C,J1*%
X107958000Y-114980000D02*
X107958000Y-127780000D01*
X121658000Y-127780000D02*
X107958000Y-127780000D01*
X121658000Y-114980000D02*
X121658000Y-127780000D01*
X121658000Y-114980000D02*
X107958000Y-114980000D01*
%TO.C,D1*%
X128406000Y-136425000D02*
X125946000Y-136425000D01*
X128406000Y-137895000D02*
X128406000Y-136425000D01*
X125946000Y-137895000D02*
X128406000Y-137895000D01*
%TO.C,C2*%
X126599733Y-134618000D02*
X126892267Y-134618000D01*
X126599733Y-135638000D02*
X126892267Y-135638000D01*
%TO.C,C1*%
X126599733Y-134114000D02*
X126892267Y-134114000D01*
X126599733Y-133094000D02*
X126892267Y-133094000D01*
%TD*%
M02*
